<svg xmlns="http://www.w3.org/2000/svg" viewBox="0 0 640 480" role="img" aria-labelledby="title desc">
  <title id="title">SWAPP App Dashboard Preview</title>
  <desc id="desc">Illustration of the SWAPP Church App dashboard with analytics and messaging panels.</desc>
  <defs>
    <linearGradient id="bg" x1="0%" y1="0%" x2="100%" y2="100%">
      <stop offset="0%" stop-color="#12d87a" stop-opacity="0.25" />
      <stop offset="100%" stop-color="#0fb27a" stop-opacity="0.15" />
    </linearGradient>
  </defs>
  <rect width="640" height="480" rx="32" fill="#0c152b" />
  <rect x="24" y="24" width="592" height="432" rx="28" fill="url(#bg)" />
  <rect x="64" y="68" width="512" height="68" rx="20" fill="#0c152b" opacity="0.82" />
  <circle cx="108" cy="102" r="14" fill="#12d87a" />
  <circle cx="150" cy="102" r="14" fill="#ffd53d" />
  <circle cx="192" cy="102" r="14" fill="#ff7360" />
  <rect x="104" y="168" width="180" height="220" rx="24" fill="#ffffff" opacity="0.96" />
  <rect x="320" y="168" width="220" height="144" rx="24" fill="#ffffff" opacity="0.92" />
  <rect x="320" y="328" width="220" height="60" rx="18" fill="#ffffff" opacity="0.85" />
  <rect x="128" y="194" width="132" height="32" rx="16" fill="#0fb27a" opacity="0.9" />
  <rect x="128" y="238" width="132" height="22" rx="11" fill="#12d87a" opacity="0.6" />
  <rect x="128" y="270" width="132" height="22" rx="11" fill="#12d87a" opacity="0.4" />
  <rect x="128" y="302" width="132" height="22" rx="11" fill="#12d87a" opacity="0.25" />
  <rect x="344" y="190" width="172" height="26" rx="13" fill="#0c152b" opacity="0.75" />
  <rect x="344" y="224" width="172" height="26" rx="13" fill="#0c152b" opacity="0.65" />
  <rect x="344" y="258" width="172" height="26" rx="13" fill="#0c152b" opacity="0.55" />
  <rect x="344" y="338" width="72" height="30" rx="15" fill="#0fb27a" />
  <rect x="424" y="338" width="96" height="30" rx="15" fill="#12d87a" opacity="0.75" />
  <path d="M344 304c34-52 54 30 86-18 26-38 52 10 62-18" stroke="#0fb27a" stroke-width="6" fill="none" stroke-linecap="round" stroke-linejoin="round" />
</svg>
