<svg xmlns="http://www.w3.org/2000/svg" viewBox="0 0 32 32" role="img" aria-labelledby="title">
  <title id="title">YouTube</title>
  <rect width="32" height="32" rx="8" fill="#ff0000" />
  <path d="M24.7 11.2a2.2 2.2 0 0 0-1.6-1.6C21.9 9.2 16 9.2 16 9.2s-5.9 0-7.1.4A2.2 2.2 0 0 0 7.3 11.2 23 23 0 0 0 7 16a23 23 0 0 0 .3 4.8 2.2 2.2 0 0 0 1.6 1.6c1.2.4 7.1.4 7.1.4s5.9 0 7.1-.4a2.2 2.2 0 0 0 1.6-1.6A23 23 0 0 0 25 16a23 23 0 0 0-.3-4.8z" fill="#fff" />
  <path d="M14.2 19.2 19.3 16l-5.1-3.2z" fill="#ff0000" />
</svg>
