<svg xmlns="http://www.w3.org/2000/svg" viewBox="0 0 32 32" role="img" aria-labelledby="title">
  <title id="title">Instagram</title>
  <defs>
    <linearGradient id="ig" x1="0%" y1="0%" x2="100%" y2="100%">
      <stop offset="0%" stop-color="#f58529" />
      <stop offset="50%" stop-color="#dd2a7b" />
      <stop offset="100%" stop-color="#8134af" />
    </linearGradient>
  </defs>
  <rect width="32" height="32" rx="8" fill="url(#ig)" />
  <path d="M16 10.2A5.8 5.8 0 1 0 21.8 16 5.81 5.81 0 0 0 16 10.2zm0 9.4A3.6 3.6 0 1 1 19.6 16 3.6 3.6 0 0 1 16 19.6zm7.4-9.88a1.35 1.35 0 1 1-1.35-1.35 1.35 1.35 0 0 1 1.35 1.35z" fill="#fff" />
  <path d="M22.9 6H9.1A3.1 3.1 0 0 0 6 9.1v13.8A3.1 3.1 0 0 0 9.1 26h13.8A3.1 3.1 0 0 0 26 22.9V9.1A3.1 3.1 0 0 0 22.9 6zm1.9 16.9a1.9 1.9 0 0 1-1.9 1.9H9.1a1.9 1.9 0 0 1-1.9-1.9V9.1a1.9 1.9 0 0 1 1.9-1.9h13.8a1.9 1.9 0 0 1 1.9 1.9z" fill="#fff" />
</svg>
