<svg xmlns="http://www.w3.org/2000/svg" viewBox="0 0 120 120" role="img" aria-labelledby="title desc">
  <title id="title">SWAPP Logo</title>
  <desc id="desc">Minimal geometric logo for the SWAPP Church App brand.</desc>
  <defs>
    <linearGradient id="gradient" x1="0%" y1="0%" x2="100%" y2="100%">
      <stop offset="0%" stop-color="#12d87a" />
      <stop offset="100%" stop-color="#0fb27a" />
    </linearGradient>
  </defs>
  <rect width="120" height="120" rx="26" fill="#0c152b" />
  <path d="M90 42c0 16.57-13.43 30-30 30S30 58.57 30 42c0-4.8 1.17-9.33 3.25-13.33C38.89 37.13 48.7 44 60 44s21.11-6.87 26.75-15.33A29.65 29.65 0 0 1 90 42z" fill="url(#gradient)" opacity="0.9" />
  <path d="M33 72h54v18a12 12 0 0 1-12 12H45a12 12 0 0 1-12-12V72z" fill="#ffffff" opacity="0.96" />
  <path d="M52 81h16a4 4 0 1 1 0 8H52a4 4 0 0 1 0-8z" fill="#0fb27a" />
</svg>
